<mxfile><diagram id="KzsDqU5L2ASPPdpiJRmI" name="Page-1"><mxGraphModel dx="434" dy="328" grid="1" gridSize="10" guides="1" tooltips="1" connect="1" arrows="1" fold="1" page="1" pageScale="1" pageWidth="827" pageHeight="1169" math="0" shadow="0"><root><mxCell id="0"/><mxCell id="1" parent="0"/><mxCell id="3" style="edgeStyle=none;html=1;" edge="1" parent="1" source="2"><mxGeometry relative="1" as="geometry"><mxPoint x="200" y="140" as="targetPoint"/></mxGeometry></mxCell><mxCell id="2" value="inicio" style="ellipse;whiteSpace=wrap;html=1;fillColor=#60a917;fontColor=#ffffff;strokeColor=#2D7600;" vertex="1" parent="1"><mxGeometry x="150" width="120" height="80" as="geometry"/></mxCell><mxCell id="5" style="edgeStyle=none;html=1;" edge="1" parent="1" source="4"><mxGeometry relative="1" as="geometry"><mxPoint x="200" y="260" as="targetPoint"/></mxGeometry></mxCell><mxCell id="13" style="edgeStyle=none;html=1;entryX=0.5;entryY=0;entryDx=0;entryDy=0;" edge="1" parent="1" source="4" target="6"><mxGeometry relative="1" as="geometry"/></mxCell><mxCell id="4" value="d1=n%10*1000&lt;br&gt;pe=n//10&lt;br&gt;d2=pe%10*100&lt;br&gt;p3=pe%10*10&lt;br&gt;d4=pe//10&lt;br&gt;nl=d1+d2+d3+d4" style="whiteSpace=wrap;html=1;fillColor=#1ba1e2;fontColor=#ffffff;strokeColor=#006EAF;" vertex="1" parent="1"><mxGeometry x="145" y="230" width="110" height="101" as="geometry"/></mxCell><mxCell id="7" style="edgeStyle=none;html=1;" edge="1" parent="1" source="6"><mxGeometry relative="1" as="geometry"><mxPoint x="190" y="410" as="targetPoint"/></mxGeometry></mxCell><mxCell id="14" style="edgeStyle=none;html=1;entryX=0.5;entryY=0;entryDx=0;entryDy=0;" edge="1" parent="1" source="6" target="8"><mxGeometry relative="1" as="geometry"/></mxCell><mxCell id="6" value="d1,d2,d3,d4" style="shape=document;whiteSpace=wrap;html=1;boundedLbl=1;fillColor=#0050ef;fontColor=#ffffff;strokeColor=#001DBC;" vertex="1" parent="1"><mxGeometry x="145" y="370" width="120" height="80" as="geometry"/></mxCell><mxCell id="8" value="fin" style="ellipse;whiteSpace=wrap;html=1;fillColor=#6a00ff;fontColor=#ffffff;strokeColor=#3700CC;" vertex="1" parent="1"><mxGeometry x="145" y="490" width="140" height="80" as="geometry"/></mxCell><mxCell id="12" style="edgeStyle=none;html=1;entryX=0.5;entryY=0;entryDx=0;entryDy=0;" edge="1" parent="1" source="10" target="4"><mxGeometry relative="1" as="geometry"/></mxCell><mxCell id="10" value="nl" style="shape=parallelogram;perimeter=parallelogramPerimeter;whiteSpace=wrap;html=1;fixedSize=1;fillColor=#d80073;fontColor=#ffffff;strokeColor=#A50040;" vertex="1" parent="1"><mxGeometry x="140" y="140" width="120" height="60" as="geometry"/></mxCell></root></mxGraphModel></diagram></mxfile>